STARTFONT 2.1
FONT -mf-Minimum-Font-Medium-R-Normal--8-110-96-96-C-139-ISO10646-1
SIZE 11 96 96
FONTBOUNDINGBOX 8 8 0 -2
STARTPROPERTIES 24
FAMILY_NAME"Minimum-Font"
FOUNDRY "mf"
SETWIDTH_NAME "Normal"
ADD_STYLE_NAME ""
WEIGHT_NAME "Medium"
SLANT "R"
PIXEL_SIZE 8
RASTERIZER_VERSION 140
RESOLUTION_X 96
RESOLUTION_Y 96
SPACING "C"
AVERAGE_WIDTH 80
CHARSET_REGISTRY "ISO10646"
CHARSET_ENCODING "1"
MIN_SPACE 4
WEIGHT 10
RESOLUTION 99
X_HEIGHT 4
QUAD_WIDTH 4
POINT_SIZE 110
FONT_ASCENT 6
FONT_DESCENT 2
ENDPROPERTIES
CHARS 288
STARTCHAR U+0020
ENCODING 32
SWIDTH 500 0
DWIDTH 4 0
BBX 4 8 0 -2
BITMAP
00
00
00
00
00
00
00
00
ENDCHAR
STARTCHAR U+0021
ENCODING 33
SWIDTH 500 0
DWIDTH 4 0
BBX 4 8 0 -2
BITMAP
00
40
40
40
00
40
00
00
ENDCHAR
STARTCHAR U+0022
ENCODING 34
SWIDTH 500 0
DWIDTH 4 0
BBX 4 8 0 -2
BITMAP
00
C0
C0
C0
00
00
00
00
ENDCHAR
STARTCHAR U+0023
ENCODING 35
SWIDTH 500 0
DWIDTH 4 0
BBX 4 8 0 -2
BITMAP
00
A0
E0
A0
A0
E0
A0
00
ENDCHAR
STARTCHAR U+0024
ENCODING 36
SWIDTH 500 0
DWIDTH 4 0
BBX 4 8 0 -2
BITMAP
00
60
80
40
20
C0
40
00
ENDCHAR
STARTCHAR U+0025
ENCODING 37
SWIDTH 500 0
DWIDTH 4 0
BBX 4 8 0 -2
BITMAP
00
A0
20
40
80
A0
00
00
ENDCHAR
STARTCHAR U+0026
ENCODING 38
SWIDTH 500 0
DWIDTH 4 0
BBX 4 8 0 -2
BITMAP
00
40
A0
40
80
A0
60
00
ENDCHAR
STARTCHAR U+0027
ENCODING 39
SWIDTH 500 0
DWIDTH 4 0
BBX 4 8 0 -2
BITMAP
00
80
80
80
00
00
00
00
ENDCHAR
STARTCHAR U+0028
ENCODING 40
SWIDTH 500 0
DWIDTH 4 0
BBX 4 8 0 -2
BITMAP
00
20
40
40
40
40
20
00
ENDCHAR
STARTCHAR U+0029
ENCODING 41
SWIDTH 500 0
DWIDTH 4 0
BBX 4 8 0 -2
BITMAP
00
80
40
40
40
40
80
00
ENDCHAR
STARTCHAR U+002A
ENCODING 42
SWIDTH 500 0
DWIDTH 4 0
BBX 4 8 0 -2
BITMAP
00
00
40
E0
40
A0
00
00
ENDCHAR
STARTCHAR U+002B
ENCODING 43
SWIDTH 500 0
DWIDTH 4 0
BBX 4 8 0 -2
BITMAP
00
00
40
E0
40
00
00
00
ENDCHAR
STARTCHAR U+002C
ENCODING 44
SWIDTH 500 0
DWIDTH 4 0
BBX 4 8 0 -2
BITMAP
00
00
00
00
00
40
80
00
ENDCHAR
STARTCHAR U+002D
ENCODING 45
SWIDTH 500 0
DWIDTH 4 0
BBX 4 8 0 -2
BITMAP
00
00
00
E0
00
00
00
00
ENDCHAR
STARTCHAR U+002E
ENCODING 46
SWIDTH 500 0
DWIDTH 4 0
BBX 4 8 0 -2
BITMAP
00
00
00
00
00
80
00
00
ENDCHAR
STARTCHAR U+002F
ENCODING 47
SWIDTH 500 0
DWIDTH 4 0
BBX 4 8 0 -2
BITMAP
00
20
20
40
40
40
80
80
ENDCHAR
STARTCHAR U+0030
ENCODING 48
SWIDTH 500 0
DWIDTH 4 0
BBX 4 8 0 -2
BITMAP
00
40
A0
E0
A0
40
00
00
ENDCHAR
STARTCHAR U+0031
ENCODING 49
SWIDTH 500 0
DWIDTH 4 0
BBX 4 8 0 -2
BITMAP
00
40
C0
40
40
E0
00
00
ENDCHAR
STARTCHAR U+0032
ENCODING 50
SWIDTH 500 0
DWIDTH 4 0
BBX 4 8 0 -2
BITMAP
00
40
A0
20
40
E0
00
00
ENDCHAR
STARTCHAR U+0033
ENCODING 51
SWIDTH 500 0
DWIDTH 4 0
BBX 4 8 0 -2
BITMAP
00
C0
20
60
20
C0
00
00
ENDCHAR
STARTCHAR U+0034
ENCODING 52
SWIDTH 500 0
DWIDTH 4 0
BBX 4 8 0 -2
BITMAP
00
20
60
A0
E0
20
00
00
ENDCHAR
STARTCHAR U+0035
ENCODING 53
SWIDTH 500 0
DWIDTH 4 0
BBX 4 8 0 -2
BITMAP
00
E0
80
C0
20
C0
00
00
ENDCHAR
STARTCHAR U+0036
ENCODING 54
SWIDTH 500 0
DWIDTH 4 0
BBX 4 8 0 -2
BITMAP
00
60
80
C0
A0
60
00
00
ENDCHAR
STARTCHAR U+0037
ENCODING 55
SWIDTH 500 0
DWIDTH 4 0
BBX 4 8 0 -2
BITMAP
00
E0
20
20
40
40
00
00
ENDCHAR
STARTCHAR U+0038
ENCODING 56
SWIDTH 500 0
DWIDTH 4 0
BBX 4 8 0 -2
BITMAP
00
40
A0
40
A0
C0
00
00
ENDCHAR
STARTCHAR U+0039
ENCODING 57
SWIDTH 500 0
DWIDTH 4 0
BBX 4 8 0 -2
BITMAP
00
C0
A0
60
20
C0
00
00
ENDCHAR
STARTCHAR U+003A
ENCODING 58
SWIDTH 500 0
DWIDTH 4 0
BBX 4 8 0 -2
BITMAP
00
00
40
00
40
00
00
00
ENDCHAR
STARTCHAR U+003B
ENCODING 59
SWIDTH 500 0
DWIDTH 4 0
BBX 4 8 0 -2
BITMAP
00
00
40
00
40
80
00
00
ENDCHAR
STARTCHAR U+003C
ENCODING 60
SWIDTH 500 0
DWIDTH 4 0
BBX 4 8 0 -2
BITMAP
00
20
40
80
40
20
00
00
ENDCHAR
STARTCHAR U+003D
ENCODING 61
SWIDTH 500 0
DWIDTH 4 0
BBX 4 8 0 -2
BITMAP
00
00
E0
00
E0
00
00
00
ENDCHAR
STARTCHAR U+003E
ENCODING 62
SWIDTH 500 0
DWIDTH 4 0
BBX 4 8 0 -2
BITMAP
00
80
40
20
40
80
00
00
ENDCHAR
STARTCHAR U+003F
ENCODING 63
SWIDTH 500 0
DWIDTH 4 0
BBX 4 8 0 -2
BITMAP
00
40
A0
20
40
00
40
00
ENDCHAR
STARTCHAR U+0040
ENCODING 64
SWIDTH 500 0
DWIDTH 4 0
BBX 4 8 0 -2
BITMAP
00
C0
20
60
A0
E0
20
C0
ENDCHAR
STARTCHAR U+0041
ENCODING 65
SWIDTH 500 0
DWIDTH 4 0
BBX 4 8 0 -2
BITMAP
00
40
A0
A0
E0
A0
00
00
ENDCHAR
STARTCHAR U+0042
ENCODING 66
SWIDTH 500 0
DWIDTH 4 0
BBX 4 8 0 -2
BITMAP
00
C0
A0
C0
A0
E0
00
00
ENDCHAR
STARTCHAR U+0043
ENCODING 67
SWIDTH 500 0
DWIDTH 4 0
BBX 4 8 0 -2
BITMAP
00
60
80
80
80
60
00
00
ENDCHAR
STARTCHAR U+0044
ENCODING 68
SWIDTH 500 0
DWIDTH 4 0
BBX 4 8 0 -2
BITMAP
00
C0
A0
A0
A0
C0
00
00
ENDCHAR
STARTCHAR U+0045
ENCODING 69
SWIDTH 500 0
DWIDTH 4 0
BBX 4 8 0 -2
BITMAP
00
E0
80
E0
80
E0
00
00
ENDCHAR
STARTCHAR U+0046
ENCODING 70
SWIDTH 500 0
DWIDTH 4 0
BBX 4 8 0 -2
BITMAP
00
E0
80
E0
80
80
00
00
ENDCHAR
STARTCHAR U+0047
ENCODING 71
SWIDTH 500 0
DWIDTH 4 0
BBX 4 8 0 -2
BITMAP
00
60
80
A0
A0
E0
00
00
ENDCHAR
STARTCHAR U+0048
ENCODING 72
SWIDTH 500 0
DWIDTH 4 0
BBX 4 8 0 -2
BITMAP
00
A0
A0
E0
A0
A0
00
00
ENDCHAR
STARTCHAR U+0049
ENCODING 73
SWIDTH 500 0
DWIDTH 4 0
BBX 4 8 0 -2
BITMAP
00
E0
40
40
40
E0
00
00
ENDCHAR
STARTCHAR U+004A
ENCODING 74
SWIDTH 500 0
DWIDTH 4 0
BBX 4 8 0 -2
BITMAP
00
60
20
20
20
20
C0
00
ENDCHAR
STARTCHAR U+004B
ENCODING 75
SWIDTH 500 0
DWIDTH 4 0
BBX 4 8 0 -2
BITMAP
00
A0
A0
C0
A0
A0
00
00
ENDCHAR
STARTCHAR U+004C
ENCODING 76
SWIDTH 500 0
DWIDTH 4 0
BBX 4 8 0 -2
BITMAP
00
80
80
80
80
E0
00
00
ENDCHAR
STARTCHAR U+004D
ENCODING 77
SWIDTH 500 0
DWIDTH 4 0
BBX 4 8 0 -2
BITMAP
00
E0
E0
A0
A0
A0
00
00
ENDCHAR
STARTCHAR U+004E
ENCODING 78
SWIDTH 500 0
DWIDTH 4 0
BBX 4 8 0 -2
BITMAP
00
C0
A0
A0
A0
A0
00
00
ENDCHAR
STARTCHAR U+004F
ENCODING 79
SWIDTH 500 0
DWIDTH 4 0
BBX 4 8 0 -2
BITMAP
00
40
A0
A0
A0
40
00
00
ENDCHAR
STARTCHAR U+0050
ENCODING 80
SWIDTH 500 0
DWIDTH 4 0
BBX 4 8 0 -2
BITMAP
00
E0
A0
A0
C0
80
00
00
ENDCHAR
STARTCHAR U+0051
ENCODING 81
SWIDTH 500 0
DWIDTH 4 0
BBX 4 8 0 -2
BITMAP
00
40
A0
A0
A0
40
60
00
ENDCHAR
STARTCHAR U+0052
ENCODING 82
SWIDTH 500 0
DWIDTH 4 0
BBX 4 8 0 -2
BITMAP
00
C0
A0
A0
C0
A0
00
00
ENDCHAR
STARTCHAR U+0053
ENCODING 83
SWIDTH 500 0
DWIDTH 4 0
BBX 4 8 0 -2
BITMAP
00
60
80
40
20
C0
00
00
ENDCHAR
STARTCHAR U+0054
ENCODING 84
SWIDTH 500 0
DWIDTH 4 0
BBX 4 8 0 -2
BITMAP
00
E0
40
40
40
40
00
00
ENDCHAR
STARTCHAR U+0055
ENCODING 85
SWIDTH 500 0
DWIDTH 4 0
BBX 4 8 0 -2
BITMAP
00
A0
A0
A0
A0
60
00
00
ENDCHAR
STARTCHAR U+0056
ENCODING 86
SWIDTH 500 0
DWIDTH 4 0
BBX 4 8 0 -2
BITMAP
00
A0
A0
A0
40
40
00
00
ENDCHAR
STARTCHAR U+0057
ENCODING 87
SWIDTH 500 0
DWIDTH 4 0
BBX 4 8 0 -2
BITMAP
00
A0
A0
E0
E0
A0
00
00
ENDCHAR
STARTCHAR U+0058
ENCODING 88
SWIDTH 500 0
DWIDTH 4 0
BBX 4 8 0 -2
BITMAP
00
A0
A0
40
A0
A0
00
00
ENDCHAR
STARTCHAR U+0059
ENCODING 89
SWIDTH 500 0
DWIDTH 4 0
BBX 4 8 0 -2
BITMAP
00
A0
A0
E0
40
40
00
00
ENDCHAR
STARTCHAR U+005A
ENCODING 90
SWIDTH 500 0
DWIDTH 4 0
BBX 4 8 0 -2
BITMAP
00
E0
20
40
80
E0
00
00
ENDCHAR
STARTCHAR U+005B
ENCODING 91
SWIDTH 500 0
DWIDTH 4 0
BBX 4 8 0 -2
BITMAP
00
E0
80
80
80
80
E0
00
ENDCHAR
STARTCHAR U+005C
ENCODING 92
SWIDTH 500 0
DWIDTH 4 0
BBX 4 8 0 -2
BITMAP
80
80
40
40
40
20
20
00
ENDCHAR
STARTCHAR U+005D
ENCODING 93
SWIDTH 500 0
DWIDTH 4 0
BBX 4 8 0 -2
BITMAP
00
E0
20
20
20
20
E0
00
ENDCHAR
STARTCHAR U+005E
ENCODING 94
SWIDTH 500 0
DWIDTH 4 0
BBX 4 8 0 -2
BITMAP
00
40
A0
A0
00
00
00
00
ENDCHAR
STARTCHAR U+005F
ENCODING 95
SWIDTH 500 0
DWIDTH 4 0
BBX 4 8 0 -2
BITMAP
00
00
00
00
00
E0
00
00
ENDCHAR
STARTCHAR U+0060
ENCODING 96
SWIDTH 500 0
DWIDTH 4 0
BBX 4 8 0 -2
BITMAP
00
40
40
20
00
00
00
00
ENDCHAR
STARTCHAR U+0061
ENCODING 97
SWIDTH 500 0
DWIDTH 4 0
BBX 4 8 0 -2
BITMAP
00
00
60
A0
A0
E0
00
00
ENDCHAR
STARTCHAR U+0062
ENCODING 98
SWIDTH 500 0
DWIDTH 4 0
BBX 4 8 0 -2
BITMAP
00
80
80
C0
A0
E0
00
00
ENDCHAR
STARTCHAR U+0063
ENCODING 99
SWIDTH 500 0
DWIDTH 4 0
BBX 4 8 0 -2
BITMAP
00
00
60
80
80
60
00
00
ENDCHAR
STARTCHAR U+0064
ENCODING 100
SWIDTH 500 0
DWIDTH 4 0
BBX 4 8 0 -2
BITMAP
00
20
20
60
A0
E0
00
00
ENDCHAR
STARTCHAR U+0065
ENCODING 101
SWIDTH 500 0
DWIDTH 4 0
BBX 4 8 0 -2
BITMAP
00
00
60
80
E0
80
60
00
ENDCHAR
STARTCHAR U+0066
ENCODING 102
SWIDTH 500 0
DWIDTH 4 0
BBX 4 8 0 -2
BITMAP
00
20
40
E0
40
40
40
00
ENDCHAR
STARTCHAR U+0067
ENCODING 103
SWIDTH 500 0
DWIDTH 4 0
BBX 4 8 0 -2
BITMAP
00
00
40
A0
A0
60
20
40
ENDCHAR
STARTCHAR U+0068
ENCODING 104
SWIDTH 500 0
DWIDTH 4 0
BBX 4 8 0 -2
BITMAP
00
80
80
C0
A0
A0
00
00
ENDCHAR
STARTCHAR U+0069
ENCODING 105
SWIDTH 500 0
DWIDTH 4 0
BBX 4 8 0 -2
BITMAP
00
40
00
40
40
40
00
00
ENDCHAR
STARTCHAR U+006A
ENCODING 106
SWIDTH 500 0
DWIDTH 4 0
BBX 4 8 0 -2
BITMAP
00
40
00
40
40
40
40
80
ENDCHAR
STARTCHAR U+006B
ENCODING 107
SWIDTH 500 0
DWIDTH 4 0
BBX 4 8 0 -2
BITMAP
00
80
80
A0
C0
A0
00
00
ENDCHAR
STARTCHAR U+006C
ENCODING 108
SWIDTH 500 0
DWIDTH 4 0
BBX 4 8 0 -2
BITMAP
00
C0
40
40
40
E0
00
00
ENDCHAR
STARTCHAR U+006D
ENCODING 109
SWIDTH 500 0
DWIDTH 4 0
BBX 4 8 0 -2
BITMAP
00
00
E0
E0
E0
E0
00
00
ENDCHAR
STARTCHAR U+006E
ENCODING 110
SWIDTH 500 0
DWIDTH 4 0
BBX 4 8 0 -2
BITMAP
00
00
C0
A0
A0
A0
00
00
ENDCHAR
STARTCHAR U+006F
ENCODING 111
SWIDTH 500 0
DWIDTH 4 0
BBX 4 8 0 -2
BITMAP
00
00
40
A0
A0
40
00
00
ENDCHAR
STARTCHAR U+0070
ENCODING 112
SWIDTH 500 0
DWIDTH 4 0
BBX 4 8 0 -2
BITMAP
00
00
C0
A0
A0
C0
80
80
ENDCHAR
STARTCHAR U+0071
ENCODING 113
SWIDTH 500 0
DWIDTH 4 0
BBX 4 8 0 -2
BITMAP
00
00
40
A0
A0
60
20
20
ENDCHAR
STARTCHAR U+0072
ENCODING 114
SWIDTH 500 0
DWIDTH 4 0
BBX 4 8 0 -2
BITMAP
00
00
60
80
80
80
00
00
ENDCHAR
STARTCHAR U+0073
ENCODING 115
SWIDTH 500 0
DWIDTH 4 0
BBX 4 8 0 -2
BITMAP
00
00
20
40
20
C0
00
00
ENDCHAR
STARTCHAR U+0074
ENCODING 116
SWIDTH 500 0
DWIDTH 4 0
BBX 4 8 0 -2
BITMAP
00
40
E0
40
40
40
00
00
ENDCHAR
STARTCHAR U+0075
ENCODING 117
SWIDTH 500 0
DWIDTH 4 0
BBX 4 8 0 -2
BITMAP
00
00
A0
A0
A0
60
00
00
ENDCHAR
STARTCHAR U+0076
ENCODING 118
SWIDTH 500 0
DWIDTH 4 0
BBX 4 8 0 -2
BITMAP
00
00
A0
A0
A0
40
00
00
ENDCHAR
STARTCHAR U+0077
ENCODING 119
SWIDTH 500 0
DWIDTH 4 0
BBX 4 8 0 -2
BITMAP
00
00
A0
A0
E0
E0
00
00
ENDCHAR
STARTCHAR U+0078
ENCODING 120
SWIDTH 500 0
DWIDTH 4 0
BBX 4 8 0 -2
BITMAP
00
00
A0
A0
40
A0
00
00
ENDCHAR
STARTCHAR U+0079
ENCODING 121
SWIDTH 500 0
DWIDTH 4 0
BBX 4 8 0 -2
BITMAP
00
00
A0
A0
A0
60
20
C0
ENDCHAR
STARTCHAR U+007A
ENCODING 122
SWIDTH 500 0
DWIDTH 4 0
BBX 4 8 0 -2
BITMAP
00
00
E0
40
80
E0
00
00
ENDCHAR
STARTCHAR U+007B
ENCODING 123
SWIDTH 500 0
DWIDTH 4 0
BBX 4 8 0 -2
BITMAP
00
10
20
20
60
20
20
10
ENDCHAR
STARTCHAR U+007C
ENCODING 124
SWIDTH 500 0
DWIDTH 4 0
BBX 4 8 0 -2
BITMAP
00
40
40
40
40
40
40
00
ENDCHAR
STARTCHAR U+007D
ENCODING 125
SWIDTH 500 0
DWIDTH 4 0
BBX 4 8 0 -2
BITMAP
00
80
40
40
60
40
40
80
ENDCHAR
STARTCHAR U+007E
ENCODING 126
SWIDTH 500 0
DWIDTH 4 0
BBX 4 8 0 -2
BITMAP
00
20
C0
00
00
00
00
00
ENDCHAR
STARTCHAR U+007F
ENCODING 127
SWIDTH 500 0
DWIDTH 4 0
BBX 4 8 0 -2
BITMAP
00
00
00
00
00
00
00
00
ENDCHAR
STARTCHAR U+2190
ENCODING 8592
SWIDTH 500 0
DWIDTH 4 0
BBX 4 8 0 -2
BITMAP
00
40
80
F0
80
40
00
00
ENDCHAR
STARTCHAR U+2191
ENCODING 8593
SWIDTH 500 0
DWIDTH 4 0
BBX 4 8 0 -2
BITMAP
00
40
A0
00
40
40
40
00
ENDCHAR
STARTCHAR U+2192
ENCODING 8594
SWIDTH 500 0
DWIDTH 4 0
BBX 4 8 0 -2
BITMAP
00
20
10
F0
10
20
00
00
ENDCHAR
STARTCHAR U+2193
ENCODING 8595
SWIDTH 500 0
DWIDTH 4 0
BBX 4 8 0 -2
BITMAP
00
40
40
40
00
A0
40
00
ENDCHAR
STARTCHAR U+2194
ENCODING 8596
SWIDTH 500 0
DWIDTH 4 0
BBX 4 8 0 -2
BITMAP
00
20
10
F0
80
40
00
00
ENDCHAR
STARTCHAR U+2195
ENCODING 8597
SWIDTH 500 0
DWIDTH 4 0
BBX 4 8 0 -2
BITMAP
00
40
A0
00
40
00
A0
40
ENDCHAR
STARTCHAR U+2196
ENCODING 8598
SWIDTH 500 0
DWIDTH 4 0
BBX 4 8 0 -2
BITMAP
00
00
E0
C0
A0
10
00
00
ENDCHAR
STARTCHAR U+2197
ENCODING 8599
SWIDTH 500 0
DWIDTH 4 0
BBX 4 8 0 -2
BITMAP
00
00
70
30
50
80
00
00
ENDCHAR
STARTCHAR U+2198
ENCODING 8600
SWIDTH 500 0
DWIDTH 4 0
BBX 4 8 0 -2
BITMAP
00
00
80
50
30
70
00
00
ENDCHAR
STARTCHAR U+2199
ENCODING 8601
SWIDTH 500 0
DWIDTH 4 0
BBX 4 8 0 -2
BITMAP
00
00
10
A0
C0
E0
00
00
ENDCHAR
STARTCHAR U+219A
ENCODING 8602
SWIDTH 500 0
DWIDTH 4 0
BBX 4 8 0 -2
BITMAP
00
00
00
00
00
00
00
00
ENDCHAR
STARTCHAR U+219B
ENCODING 8603
SWIDTH 500 0
DWIDTH 4 0
BBX 4 8 0 -2
BITMAP
00
00
00
00
00
00
00
00
ENDCHAR
STARTCHAR U+219C
ENCODING 8604
SWIDTH 500 0
DWIDTH 4 0
BBX 4 8 0 -2
BITMAP
00
00
00
00
00
00
00
00
ENDCHAR
STARTCHAR U+219D
ENCODING 8605
SWIDTH 500 0
DWIDTH 4 0
BBX 4 8 0 -2
BITMAP
00
00
00
00
00
00
00
00
ENDCHAR
STARTCHAR U+219E
ENCODING 8606
SWIDTH 500 0
DWIDTH 4 0
BBX 4 8 0 -2
BITMAP
00
00
00
00
00
00
00
00
ENDCHAR
STARTCHAR U+219F
ENCODING 8607
SWIDTH 500 0
DWIDTH 4 0
BBX 4 8 0 -2
BITMAP
00
00
00
00
00
00
00
00
ENDCHAR
STARTCHAR U+21A0
ENCODING 8608
SWIDTH 500 0
DWIDTH 4 0
BBX 4 8 0 -2
BITMAP
00
00
00
00
00
00
00
00
ENDCHAR
STARTCHAR U+21A1
ENCODING 8609
SWIDTH 500 0
DWIDTH 4 0
BBX 4 8 0 -2
BITMAP
00
00
00
00
00
00
00
00
ENDCHAR
STARTCHAR U+21A2
ENCODING 8610
SWIDTH 500 0
DWIDTH 4 0
BBX 4 8 0 -2
BITMAP
00
00
00
00
00
00
00
00
ENDCHAR
STARTCHAR U+21A3
ENCODING 8611
SWIDTH 500 0
DWIDTH 4 0
BBX 4 8 0 -2
BITMAP
00
00
00
00
00
00
00
00
ENDCHAR
STARTCHAR U+21A4
ENCODING 8612
SWIDTH 500 0
DWIDTH 4 0
BBX 4 8 0 -2
BITMAP
00
40
90
F0
90
40
00
00
ENDCHAR
STARTCHAR U+21A5
ENCODING 8613
SWIDTH 500 0
DWIDTH 4 0
BBX 4 8 0 -2
BITMAP
00
40
A0
00
40
40
E0
00
ENDCHAR
STARTCHAR U+21A6
ENCODING 8614
SWIDTH 500 0
DWIDTH 4 0
BBX 4 8 0 -2
BITMAP
00
20
90
F0
90
20
00
00
ENDCHAR
STARTCHAR U+21A7
ENCODING 8615
SWIDTH 500 0
DWIDTH 4 0
BBX 4 8 0 -2
BITMAP
00
E0
40
40
00
A0
40
00
ENDCHAR
STARTCHAR U+21A8
ENCODING 8616
SWIDTH 500 0
DWIDTH 4 0
BBX 4 8 0 -2
BITMAP
00
40
A0
00
00
A0
40
E0
ENDCHAR
STARTCHAR U+21A9
ENCODING 8617
SWIDTH 500 0
DWIDTH 4 0
BBX 4 8 0 -2
BITMAP
00
50
90
F0
80
40
00
00
ENDCHAR
STARTCHAR U+21AA
ENCODING 8618
SWIDTH 500 0
DWIDTH 4 0
BBX 4 8 0 -2
BITMAP
00
A0
90
F0
10
20
00
00
ENDCHAR
STARTCHAR U+21AB
ENCODING 8619
SWIDTH 500 0
DWIDTH 4 0
BBX 4 8 0 -2
BITMAP
00
00
00
00
00
00
00
00
ENDCHAR
STARTCHAR U+21AC
ENCODING 8620
SWIDTH 500 0
DWIDTH 4 0
BBX 4 8 0 -2
BITMAP
00
00
00
00
00
00
00
00
ENDCHAR
STARTCHAR U+21AD
ENCODING 8621
SWIDTH 500 0
DWIDTH 4 0
BBX 4 8 0 -2
BITMAP
00
00
00
00
00
00
00
00
ENDCHAR
STARTCHAR U+21AE
ENCODING 8622
SWIDTH 500 0
DWIDTH 4 0
BBX 4 8 0 -2
BITMAP
00
00
00
00
00
00
00
00
ENDCHAR
STARTCHAR U+21AF
ENCODING 8623
SWIDTH 500 0
DWIDTH 4 0
BBX 4 8 0 -2
BITMAP
00
20
40
20
40
00
A0
40
ENDCHAR
STARTCHAR U+21B0
ENCODING 8624
SWIDTH 500 0
DWIDTH 4 0
BBX 4 8 0 -2
BITMAP
00
00
00
00
00
00
00
00
ENDCHAR
STARTCHAR U+21B1
ENCODING 8625
SWIDTH 500 0
DWIDTH 4 0
BBX 4 8 0 -2
BITMAP
00
00
00
00
00
00
00
00
ENDCHAR
STARTCHAR U+21B2
ENCODING 8626
SWIDTH 500 0
DWIDTH 4 0
BBX 4 8 0 -2
BITMAP
00
00
00
00
00
00
00
00
ENDCHAR
STARTCHAR U+21B3
ENCODING 8627
SWIDTH 500 0
DWIDTH 4 0
BBX 4 8 0 -2
BITMAP
00
00
00
00
00
00
00
00
ENDCHAR
STARTCHAR U+21B4
ENCODING 8628
SWIDTH 500 0
DWIDTH 4 0
BBX 4 8 0 -2
BITMAP
00
00
00
00
00
00
00
00
ENDCHAR
STARTCHAR U+21B5
ENCODING 8629
SWIDTH 500 0
DWIDTH 4 0
BBX 4 8 0 -2
BITMAP
00
50
90
F0
80
40
00
00
ENDCHAR
STARTCHAR U+21B6
ENCODING 8630
SWIDTH 500 0
DWIDTH 4 0
BBX 4 8 0 -2
BITMAP
00
00
00
00
00
00
00
00
ENDCHAR
STARTCHAR U+21B7
ENCODING 8631
SWIDTH 500 0
DWIDTH 4 0
BBX 4 8 0 -2
BITMAP
00
00
00
00
00
00
00
00
ENDCHAR
STARTCHAR U+21B8
ENCODING 8632
SWIDTH 500 0
DWIDTH 4 0
BBX 4 8 0 -2
BITMAP
00
00
00
00
00
00
00
00
ENDCHAR
STARTCHAR U+21B9
ENCODING 8633
SWIDTH 500 0
DWIDTH 4 0
BBX 4 8 0 -2
BITMAP
00
00
00
00
00
00
00
00
ENDCHAR
STARTCHAR U+21BA
ENCODING 8634
SWIDTH 500 0
DWIDTH 4 0
BBX 4 8 0 -2
BITMAP
00
00
00
00
00
00
00
00
ENDCHAR
STARTCHAR U+21BB
ENCODING 8635
SWIDTH 500 0
DWIDTH 4 0
BBX 4 8 0 -2
BITMAP
00
00
00
00
00
00
00
00
ENDCHAR
STARTCHAR U+21BC
ENCODING 8636
SWIDTH 500 0
DWIDTH 4 0
BBX 4 8 0 -2
BITMAP
00
00
00
00
00
00
00
00
ENDCHAR
STARTCHAR U+21BD
ENCODING 8637
SWIDTH 500 0
DWIDTH 4 0
BBX 4 8 0 -2
BITMAP
00
00
00
00
00
00
00
00
ENDCHAR
STARTCHAR U+21BE
ENCODING 8638
SWIDTH 500 0
DWIDTH 4 0
BBX 4 8 0 -2
BITMAP
00
00
00
00
00
00
00
00
ENDCHAR
STARTCHAR U+21BF
ENCODING 8639
SWIDTH 500 0
DWIDTH 4 0
BBX 4 8 0 -2
BITMAP
00
00
00
00
00
00
00
00
ENDCHAR
STARTCHAR U+21C0
ENCODING 8640
SWIDTH 500 0
DWIDTH 4 0
BBX 4 8 0 -2
BITMAP
00
00
00
00
00
00
00
00
ENDCHAR
STARTCHAR U+21C1
ENCODING 8641
SWIDTH 500 0
DWIDTH 4 0
BBX 4 8 0 -2
BITMAP
00
00
00
00
00
00
00
00
ENDCHAR
STARTCHAR U+21C2
ENCODING 8642
SWIDTH 500 0
DWIDTH 4 0
BBX 4 8 0 -2
BITMAP
00
00
00
00
00
00
00
00
ENDCHAR
STARTCHAR U+21C3
ENCODING 8643
SWIDTH 500 0
DWIDTH 4 0
BBX 4 8 0 -2
BITMAP
00
00
00
00
00
00
00
00
ENDCHAR
STARTCHAR U+21C4
ENCODING 8644
SWIDTH 500 0
DWIDTH 4 0
BBX 4 8 0 -2
BITMAP
00
00
00
00
00
00
00
00
ENDCHAR
STARTCHAR U+21C5
ENCODING 8645
SWIDTH 500 0
DWIDTH 4 0
BBX 4 8 0 -2
BITMAP
00
00
00
00
00
00
00
00
ENDCHAR
STARTCHAR U+21C6
ENCODING 8646
SWIDTH 500 0
DWIDTH 4 0
BBX 4 8 0 -2
BITMAP
00
00
00
00
00
00
00
00
ENDCHAR
STARTCHAR U+21C7
ENCODING 8647
SWIDTH 500 0
DWIDTH 4 0
BBX 4 8 0 -2
BITMAP
00
00
00
00
00
00
00
00
ENDCHAR
STARTCHAR U+21C8
ENCODING 8648
SWIDTH 500 0
DWIDTH 4 0
BBX 4 8 0 -2
BITMAP
00
00
00
00
00
00
00
00
ENDCHAR
STARTCHAR U+21C9
ENCODING 8649
SWIDTH 500 0
DWIDTH 4 0
BBX 4 8 0 -2
BITMAP
00
00
00
00
00
00
00
00
ENDCHAR
STARTCHAR U+21CA
ENCODING 8650
SWIDTH 500 0
DWIDTH 4 0
BBX 4 8 0 -2
BITMAP
00
00
00
00
00
00
00
00
ENDCHAR
STARTCHAR U+21CB
ENCODING 8651
SWIDTH 500 0
DWIDTH 4 0
BBX 4 8 0 -2
BITMAP
00
00
00
00
00
00
00
00
ENDCHAR
STARTCHAR U+21CC
ENCODING 8652
SWIDTH 500 0
DWIDTH 4 0
BBX 4 8 0 -2
BITMAP
00
00
00
00
00
00
00
00
ENDCHAR
STARTCHAR U+21CD
ENCODING 8653
SWIDTH 500 0
DWIDTH 4 0
BBX 4 8 0 -2
BITMAP
00
00
00
00
00
00
00
00
ENDCHAR
STARTCHAR U+21CE
ENCODING 8654
SWIDTH 500 0
DWIDTH 4 0
BBX 4 8 0 -2
BITMAP
00
00
00
00
00
00
00
00
ENDCHAR
STARTCHAR U+21CF
ENCODING 8655
SWIDTH 500 0
DWIDTH 4 0
BBX 4 8 0 -2
BITMAP
00
00
00
00
00
00
00
00
ENDCHAR
STARTCHAR U+21D0
ENCODING 8656
SWIDTH 500 0
DWIDTH 4 0
BBX 4 8 0 -2
BITMAP
00
40
F0
80
F0
40
00
00
ENDCHAR
STARTCHAR U+21D1
ENCODING 8657
SWIDTH 500 0
DWIDTH 4 0
BBX 4 8 0 -2
BITMAP
00
00
00
00
00
00
00
00
ENDCHAR
STARTCHAR U+21D2
ENCODING 8658
SWIDTH 500 0
DWIDTH 4 0
BBX 4 8 0 -2
BITMAP
00
20
F0
10
F0
20
00
00
ENDCHAR
STARTCHAR U+21D3
ENCODING 8659
SWIDTH 500 0
DWIDTH 4 0
BBX 4 8 0 -2
BITMAP
00
00
00
00
00
00
00
00
ENDCHAR
STARTCHAR U+21D4
ENCODING 8660
SWIDTH 500 0
DWIDTH 4 0
BBX 4 8 0 -2
BITMAP
00
00
00
00
00
00
00
00
ENDCHAR
STARTCHAR U+21D5
ENCODING 8661
SWIDTH 500 0
DWIDTH 4 0
BBX 4 8 0 -2
BITMAP
00
00
00
00
00
00
00
00
ENDCHAR
STARTCHAR U+21D6
ENCODING 8662
SWIDTH 500 0
DWIDTH 4 0
BBX 4 8 0 -2
BITMAP
00
00
00
00
00
00
00
00
ENDCHAR
STARTCHAR U+21D7
ENCODING 8663
SWIDTH 500 0
DWIDTH 4 0
BBX 4 8 0 -2
BITMAP
00
00
00
00
00
00
00
00
ENDCHAR
STARTCHAR U+21D8
ENCODING 8664
SWIDTH 500 0
DWIDTH 4 0
BBX 4 8 0 -2
BITMAP
00
00
00
00
00
00
00
00
ENDCHAR
STARTCHAR U+21D9
ENCODING 8665
SWIDTH 500 0
DWIDTH 4 0
BBX 4 8 0 -2
BITMAP
00
00
00
00
00
00
00
00
ENDCHAR
STARTCHAR U+21DA
ENCODING 8666
SWIDTH 500 0
DWIDTH 4 0
BBX 4 8 0 -2
BITMAP
00
00
00
00
00
00
00
00
ENDCHAR
STARTCHAR U+21DB
ENCODING 8667
SWIDTH 500 0
DWIDTH 4 0
BBX 4 8 0 -2
BITMAP
00
00
00
00
00
00
00
00
ENDCHAR
STARTCHAR U+21DC
ENCODING 8668
SWIDTH 500 0
DWIDTH 4 0
BBX 4 8 0 -2
BITMAP
00
00
00
00
00
00
00
00
ENDCHAR
STARTCHAR U+21DD
ENCODING 8669
SWIDTH 500 0
DWIDTH 4 0
BBX 4 8 0 -2
BITMAP
00
00
00
00
00
00
00
00
ENDCHAR
STARTCHAR U+21DE
ENCODING 8670
SWIDTH 500 0
DWIDTH 4 0
BBX 4 8 0 -2
BITMAP
00
00
00
00
00
00
00
00
ENDCHAR
STARTCHAR U+21DF
ENCODING 8671
SWIDTH 500 0
DWIDTH 4 0
BBX 4 8 0 -2
BITMAP
00
00
00
00
00
00
00
00
ENDCHAR
STARTCHAR U+21E0
ENCODING 8672
SWIDTH 500 0
DWIDTH 4 0
BBX 4 8 0 -2
BITMAP
00
00
00
00
00
00
00
00
ENDCHAR
STARTCHAR U+21E1
ENCODING 8673
SWIDTH 500 0
DWIDTH 4 0
BBX 4 8 0 -2
BITMAP
00
00
00
00
00
00
00
00
ENDCHAR
STARTCHAR U+21E2
ENCODING 8674
SWIDTH 500 0
DWIDTH 4 0
BBX 4 8 0 -2
BITMAP
00
00
00
00
00
00
00
00
ENDCHAR
STARTCHAR U+21E3
ENCODING 8675
SWIDTH 500 0
DWIDTH 4 0
BBX 4 8 0 -2
BITMAP
00
00
00
00
00
00
00
00
ENDCHAR
STARTCHAR U+21E4
ENCODING 8676
SWIDTH 500 0
DWIDTH 4 0
BBX 4 8 0 -2
BITMAP
00
00
00
00
00
00
00
00
ENDCHAR
STARTCHAR U+21E5
ENCODING 8677
SWIDTH 500 0
DWIDTH 4 0
BBX 4 8 0 -2
BITMAP
00
00
00
00
00
00
00
00
ENDCHAR
STARTCHAR U+21E6
ENCODING 8678
SWIDTH 500 0
DWIDTH 4 0
BBX 4 8 0 -2
BITMAP
00
00
00
00
00
00
00
00
ENDCHAR
STARTCHAR U+21E7
ENCODING 8679
SWIDTH 500 0
DWIDTH 4 0
BBX 4 8 0 -2
BITMAP
00
00
00
00
00
00
00
00
ENDCHAR
STARTCHAR U+21E8
ENCODING 8680
SWIDTH 500 0
DWIDTH 4 0
BBX 4 8 0 -2
BITMAP
00
00
00
00
00
00
00
00
ENDCHAR
STARTCHAR U+21E9
ENCODING 8681
SWIDTH 500 0
DWIDTH 4 0
BBX 4 8 0 -2
BITMAP
00
00
00
00
00
00
00
00
ENDCHAR
STARTCHAR U+21EA
ENCODING 8682
SWIDTH 500 0
DWIDTH 4 0
BBX 4 8 0 -2
BITMAP
00
00
00
00
00
00
00
00
ENDCHAR
STARTCHAR U+21EB
ENCODING 8683
SWIDTH 500 0
DWIDTH 4 0
BBX 4 8 0 -2
BITMAP
00
00
00
00
00
00
00
00
ENDCHAR
STARTCHAR U+21EC
ENCODING 8684
SWIDTH 500 0
DWIDTH 4 0
BBX 4 8 0 -2
BITMAP
00
00
00
00
00
00
00
00
ENDCHAR
STARTCHAR U+21ED
ENCODING 8685
SWIDTH 500 0
DWIDTH 4 0
BBX 4 8 0 -2
BITMAP
00
00
00
00
00
00
00
00
ENDCHAR
STARTCHAR U+21EE
ENCODING 8686
SWIDTH 500 0
DWIDTH 4 0
BBX 4 8 0 -2
BITMAP
00
00
00
00
00
00
00
00
ENDCHAR
STARTCHAR U+21EF
ENCODING 8687
SWIDTH 500 0
DWIDTH 4 0
BBX 4 8 0 -2
BITMAP
00
00
00
00
00
00
00
00
ENDCHAR
STARTCHAR U+2200
ENCODING 8704
SWIDTH 500 0
DWIDTH 4 0
BBX 4 8 0 -2
BITMAP
00
A0
A0
E0
A0
A0
40
00
ENDCHAR
STARTCHAR U+2201
ENCODING 8705
SWIDTH 500 0
DWIDTH 4 0
BBX 4 8 0 -2
BITMAP
00
60
80
60
00
00
00
00
ENDCHAR
STARTCHAR U+2202
ENCODING 8706
SWIDTH 500 0
DWIDTH 4 0
BBX 4 8 0 -2
BITMAP
00
40
A0
20
60
A0
40
00
ENDCHAR
STARTCHAR U+2203
ENCODING 8707
SWIDTH 500 0
DWIDTH 4 0
BBX 4 8 0 -2
BITMAP
00
E0
20
E0
20
E0
00
00
ENDCHAR
STARTCHAR U+2204
ENCODING 8708
SWIDTH 500 0
DWIDTH 4 0
BBX 4 8 0 -2
BITMAP
00
00
00
00
00
00
00
00
ENDCHAR
STARTCHAR U+2205
ENCODING 8709
SWIDTH 500 0
DWIDTH 4 0
BBX 4 8 0 -2
BITMAP
00
40
40
A0
A0
40
40
00
ENDCHAR
STARTCHAR U+2206
ENCODING 8710
SWIDTH 500 0
DWIDTH 4 0
BBX 4 8 0 -2
BITMAP
00
40
40
A0
A0
E0
00
00
ENDCHAR
STARTCHAR U+2207
ENCODING 8711
SWIDTH 500 0
DWIDTH 4 0
BBX 4 8 0 -2
BITMAP
00
00
E0
A0
A0
40
40
00
ENDCHAR
STARTCHAR U+2208
ENCODING 8712
SWIDTH 500 0
DWIDTH 4 0
BBX 4 8 0 -2
BITMAP
00
00
60
80
E0
80
60
00
ENDCHAR
STARTCHAR U+2209
ENCODING 8713
SWIDTH 500 0
DWIDTH 4 0
BBX 4 8 0 -2
BITMAP
00
00
00
00
00
00
00
00
ENDCHAR
STARTCHAR U+220A
ENCODING 8714
SWIDTH 500 0
DWIDTH 4 0
BBX 4 8 0 -2
BITMAP
00
00
40
80
C0
80
40
00
ENDCHAR
STARTCHAR U+220B
ENCODING 8715
SWIDTH 500 0
DWIDTH 4 0
BBX 4 8 0 -2
BITMAP
00
00
C0
20
E0
20
C0
00
ENDCHAR
STARTCHAR U+220C
ENCODING 8716
SWIDTH 500 0
DWIDTH 4 0
BBX 4 8 0 -2
BITMAP
00
00
00
00
00
00
00
00
ENDCHAR
STARTCHAR U+220D
ENCODING 8717
SWIDTH 500 0
DWIDTH 4 0
BBX 4 8 0 -2
BITMAP
00
00
80
40
C0
40
80
00
ENDCHAR
STARTCHAR U+220E
ENCODING 8718
SWIDTH 500 0
DWIDTH 4 0
BBX 4 8 0 -2
BITMAP
00
00
00
00
60
60
00
00
ENDCHAR
STARTCHAR U+220F
ENCODING 8719
SWIDTH 500 0
DWIDTH 4 0
BBX 4 8 0 -2
BITMAP
00
E0
A0
A0
A0
A0
00
00
ENDCHAR
STARTCHAR U+2210
ENCODING 8720
SWIDTH 500 0
DWIDTH 4 0
BBX 4 8 0 -2
BITMAP
00
A0
A0
A0
A0
E0
00
00
ENDCHAR
STARTCHAR U+2211
ENCODING 8721
SWIDTH 500 0
DWIDTH 4 0
BBX 4 8 0 -2
BITMAP
00
E0
80
40
80
E0
00
00
ENDCHAR
STARTCHAR U+2212
ENCODING 8722
SWIDTH 500 0
DWIDTH 4 0
BBX 4 8 0 -2
BITMAP
00
00
00
E0
00
00
00
00
ENDCHAR
STARTCHAR U+2213
ENCODING 8723
SWIDTH 500 0
DWIDTH 4 0
BBX 4 8 0 -2
BITMAP
00
E0
00
40
E0
40
00
00
ENDCHAR
STARTCHAR U+2214
ENCODING 8724
SWIDTH 500 0
DWIDTH 4 0
BBX 4 8 0 -2
BITMAP
00
40
00
40
E0
40
00
00
ENDCHAR
STARTCHAR U+2215
ENCODING 8725
SWIDTH 500 0
DWIDTH 4 0
BBX 4 8 0 -2
BITMAP
00
00
00
00
00
00
00
00
ENDCHAR
STARTCHAR U+2216
ENCODING 8726
SWIDTH 500 0
DWIDTH 4 0
BBX 4 8 0 -2
BITMAP
00
00
80
40
20
00
00
00
ENDCHAR
STARTCHAR U+2217
ENCODING 8727
SWIDTH 500 0
DWIDTH 4 0
BBX 4 8 0 -2
BITMAP
00
40
E0
40
A0
00
00
00
ENDCHAR
STARTCHAR U+2218
ENCODING 8728
SWIDTH 500 0
DWIDTH 4 0
BBX 4 8 0 -2
BITMAP
00
00
40
A0
40
00
00
00
ENDCHAR
STARTCHAR U+2219
ENCODING 8729
SWIDTH 500 0
DWIDTH 4 0
BBX 4 8 0 -2
BITMAP
00
00
00
40
00
00
00
00
ENDCHAR
STARTCHAR U+221A
ENCODING 8730
SWIDTH 500 0
DWIDTH 4 0
BBX 4 8 0 -2
BITMAP
30
40
40
40
C0
40
00
00
ENDCHAR
STARTCHAR U+221B
ENCODING 8731
SWIDTH 500 0
DWIDTH 4 0
BBX 4 8 0 -2
BITMAP
00
00
00
00
00
00
00
00
ENDCHAR
STARTCHAR U+221C
ENCODING 8732
SWIDTH 500 0
DWIDTH 4 0
BBX 4 8 0 -2
BITMAP
00
00
00
00
00
00
00
00
ENDCHAR
STARTCHAR U+221D
ENCODING 8733
SWIDTH 500 0
DWIDTH 4 0
BBX 4 8 0 -2
BITMAP
00
A0
A0
40
A0
A0
40
00
ENDCHAR
STARTCHAR U+221E
ENCODING 8734
SWIDTH 500 0
DWIDTH 4 0
BBX 4 8 0 -2
BITMAP
00
00
40
A0
40
A0
40
00
ENDCHAR
STARTCHAR U+221F
ENCODING 8735
SWIDTH 500 0
DWIDTH 4 0
BBX 4 8 0 -2
BITMAP
00
00
80
80
80
E0
00
00
ENDCHAR
STARTCHAR U+2220
ENCODING 8736
SWIDTH 500 0
DWIDTH 4 0
BBX 4 8 0 -2
BITMAP
00
00
20
40
80
E0
00
00
ENDCHAR
STARTCHAR U+2221
ENCODING 8737
SWIDTH 500 0
DWIDTH 4 0
BBX 4 8 0 -2
BITMAP
00
00
00
00
00
00
00
00
ENDCHAR
STARTCHAR U+2222
ENCODING 8738
SWIDTH 500 0
DWIDTH 4 0
BBX 4 8 0 -2
BITMAP
00
00
00
00
00
00
00
00
ENDCHAR
STARTCHAR U+2223
ENCODING 8739
SWIDTH 500 0
DWIDTH 4 0
BBX 4 8 0 -2
BITMAP
00
40
40
40
40
40
40
00
ENDCHAR
STARTCHAR U+2224
ENCODING 8740
SWIDTH 500 0
DWIDTH 4 0
BBX 4 8 0 -2
BITMAP
00
40
40
60
C0
40
40
00
ENDCHAR
STARTCHAR U+2225
ENCODING 8741
SWIDTH 500 0
DWIDTH 4 0
BBX 4 8 0 -2
BITMAP
00
A0
A0
A0
A0
A0
A0
00
ENDCHAR
STARTCHAR U+2226
ENCODING 8742
SWIDTH 500 0
DWIDTH 4 0
BBX 4 8 0 -2
BITMAP
00
00
00
00
00
00
00
00
ENDCHAR
STARTCHAR U+2227
ENCODING 8743
SWIDTH 500 0
DWIDTH 4 0
BBX 4 8 0 -2
BITMAP
00
40
40
40
A0
A0
A0
00
ENDCHAR
STARTCHAR U+2228
ENCODING 8744
SWIDTH 500 0
DWIDTH 4 0
BBX 4 8 0 -2
BITMAP
00
A0
A0
A0
40
40
40
00
ENDCHAR
STARTCHAR U+2229
ENCODING 8745
SWIDTH 500 0
DWIDTH 4 0
BBX 4 8 0 -2
BITMAP
00
40
A0
A0
A0
A0
A0
00
ENDCHAR
STARTCHAR U+222A
ENCODING 8746
SWIDTH 500 0
DWIDTH 4 0
BBX 4 8 0 -2
BITMAP
00
A0
A0
A0
A0
A0
40
00
ENDCHAR
STARTCHAR U+222B
ENCODING 8747
SWIDTH 500 0
DWIDTH 4 0
BBX 4 8 0 -2
BITMAP
00
20
40
40
40
40
80
00
ENDCHAR
STARTCHAR U+222C
ENCODING 8748
SWIDTH 500 0
DWIDTH 4 0
BBX 4 8 0 -2
BITMAP
00
00
00
00
00
00
00
00
ENDCHAR
STARTCHAR U+222D
ENCODING 8749
SWIDTH 500 0
DWIDTH 4 0
BBX 4 8 0 -2
BITMAP
00
00
00
00
00
00
00
00
ENDCHAR
STARTCHAR U+222E
ENCODING 8750
SWIDTH 500 0
DWIDTH 4 0
BBX 4 8 0 -2
BITMAP
00
00
00
00
00
00
00
00
ENDCHAR
STARTCHAR U+222F
ENCODING 8751
SWIDTH 500 0
DWIDTH 4 0
BBX 4 8 0 -2
BITMAP
00
00
00
00
00
00
00
00
ENDCHAR
STARTCHAR U+2230
ENCODING 8752
SWIDTH 500 0
DWIDTH 4 0
BBX 4 8 0 -2
BITMAP
00
00
00
00
00
00
00
00
ENDCHAR
STARTCHAR U+2231
ENCODING 8753
SWIDTH 500 0
DWIDTH 4 0
BBX 4 8 0 -2
BITMAP
00
00
00
00
00
00
00
00
ENDCHAR
STARTCHAR U+2232
ENCODING 8754
SWIDTH 500 0
DWIDTH 4 0
BBX 4 8 0 -2
BITMAP
00
00
00
00
00
00
00
00
ENDCHAR
STARTCHAR U+2233
ENCODING 8755
SWIDTH 500 0
DWIDTH 4 0
BBX 4 8 0 -2
BITMAP
00
00
00
00
00
00
00
00
ENDCHAR
STARTCHAR U+2234
ENCODING 8756
SWIDTH 500 0
DWIDTH 4 0
BBX 4 8 0 -2
BITMAP
00
00
40
00
00
A0
00
00
ENDCHAR
STARTCHAR U+2235
ENCODING 8757
SWIDTH 500 0
DWIDTH 4 0
BBX 4 8 0 -2
BITMAP
00
00
A0
00
00
40
00
00
ENDCHAR
STARTCHAR U+2236
ENCODING 8758
SWIDTH 500 0
DWIDTH 4 0
BBX 4 8 0 -2
BITMAP
00
00
40
00
40
00
00
00
ENDCHAR
STARTCHAR U+2237
ENCODING 8759
SWIDTH 500 0
DWIDTH 4 0
BBX 4 8 0 -2
BITMAP
00
00
A0
00
A0
00
00
00
ENDCHAR
STARTCHAR U+2238
ENCODING 8760
SWIDTH 500 0
DWIDTH 4 0
BBX 4 8 0 -2
BITMAP
00
00
40
00
E0
00
00
00
ENDCHAR
STARTCHAR U+2239
ENCODING 8761
SWIDTH 500 0
DWIDTH 4 0
BBX 4 8 0 -2
BITMAP
00
20
00
C0
00
20
00
00
ENDCHAR
STARTCHAR U+223A
ENCODING 8762
SWIDTH 500 0
DWIDTH 4 0
BBX 4 8 0 -2
BITMAP
00
A0
00
E0
00
A0
00
00
ENDCHAR
STARTCHAR U+223B
ENCODING 8763
SWIDTH 500 0
DWIDTH 4 0
BBX 4 8 0 -2
BITMAP
00
80
40
20
40
20
10
00
ENDCHAR
STARTCHAR U+223C
ENCODING 8764
SWIDTH 500 0
DWIDTH 4 0
BBX 4 8 0 -2
BITMAP
00
00
00
00
00
00
00
00
ENDCHAR
STARTCHAR U+223D
ENCODING 8765
SWIDTH 500 0
DWIDTH 4 0
BBX 4 8 0 -2
BITMAP
00
00
40
80
40
20
40
00
ENDCHAR
STARTCHAR U+223E
ENCODING 8766
SWIDTH 500 0
DWIDTH 4 0
BBX 4 8 0 -2
BITMAP
00
00
00
00
00
00
00
00
ENDCHAR
STARTCHAR U+223F
ENCODING 8767
SWIDTH 500 0
DWIDTH 4 0
BBX 4 8 0 -2
BITMAP
00
00
00
00
00
00
00
00
ENDCHAR
STARTCHAR U+2240
ENCODING 8768
SWIDTH 500 0
DWIDTH 4 0
BBX 4 8 0 -2
BITMAP
00
00
00
00
00
00
00
00
ENDCHAR
STARTCHAR U+2241
ENCODING 8769
SWIDTH 500 0
DWIDTH 4 0
BBX 4 8 0 -2
BITMAP
00
00
00
00
00
00
00
00
ENDCHAR
STARTCHAR U+2242
ENCODING 8770
SWIDTH 500 0
DWIDTH 4 0
BBX 4 8 0 -2
BITMAP
00
00
00
00
00
00
00
00
ENDCHAR
STARTCHAR U+2243
ENCODING 8771
SWIDTH 500 0
DWIDTH 4 0
BBX 4 8 0 -2
BITMAP
00
00
50
A0
00
F0
00
00
ENDCHAR
STARTCHAR U+2244
ENCODING 8772
SWIDTH 500 0
DWIDTH 4 0
BBX 4 8 0 -2
BITMAP
00
00
00
00
00
00
00
00
ENDCHAR
STARTCHAR U+2245
ENCODING 8773
SWIDTH 500 0
DWIDTH 4 0
BBX 4 8 0 -2
BITMAP
00
00
50
A0
00
F0
00
00
ENDCHAR
STARTCHAR U+2246
ENCODING 8774
SWIDTH 500 0
DWIDTH 4 0
BBX 4 8 0 -2
BITMAP
00
00
00
00
00
00
00
00
ENDCHAR
STARTCHAR U+2247
ENCODING 8775
SWIDTH 500 0
DWIDTH 4 0
BBX 4 8 0 -2
BITMAP
00
00
00
00
00
00
00
00
ENDCHAR
STARTCHAR U+2248
ENCODING 8776
SWIDTH 500 0
DWIDTH 4 0
BBX 4 8 0 -2
BITMAP
00
50
A0
00
50
A0
00
00
ENDCHAR
STARTCHAR U+2249
ENCODING 8777
SWIDTH 500 0
DWIDTH 4 0
BBX 4 8 0 -2
BITMAP
00
00
00
00
00
00
00
00
ENDCHAR
STARTCHAR U+224A
ENCODING 8778
SWIDTH 500 0
DWIDTH 4 0
BBX 4 8 0 -2
BITMAP
00
00
00
00
00
00
00
00
ENDCHAR
STARTCHAR U+224B
ENCODING 8779
SWIDTH 500 0
DWIDTH 4 0
BBX 4 8 0 -2
BITMAP
00
00
00
00
00
00
00
00
ENDCHAR
STARTCHAR U+224C
ENCODING 8780
SWIDTH 500 0
DWIDTH 4 0
BBX 4 8 0 -2
BITMAP
00
00
00
00
00
00
00
00
ENDCHAR
STARTCHAR U+224D
ENCODING 8781
SWIDTH 500 0
DWIDTH 4 0
BBX 4 8 0 -2
BITMAP
00
00
00
00
00
00
00
00
ENDCHAR
STARTCHAR U+224E
ENCODING 8782
SWIDTH 500 0
DWIDTH 4 0
BBX 4 8 0 -2
BITMAP
00
00
00
00
00
00
00
00
ENDCHAR
STARTCHAR U+224F
ENCODING 8783
SWIDTH 500 0
DWIDTH 4 0
BBX 4 8 0 -2
BITMAP
00
00
00
00
00
00
00
00
ENDCHAR
STARTCHAR U+2250
ENCODING 8784
SWIDTH 500 0
DWIDTH 4 0
BBX 4 8 0 -2
BITMAP
00
00
00
00
00
00
00
00
ENDCHAR
STARTCHAR U+2251
ENCODING 8785
SWIDTH 500 0
DWIDTH 4 0
BBX 4 8 0 -2
BITMAP
00
00
E0
00
E0
00
E0
00
ENDCHAR
STARTCHAR U+2252
ENCODING 8786
SWIDTH 500 0
DWIDTH 4 0
BBX 4 8 0 -2
BITMAP
00
00
00
00
00
00
00
00
ENDCHAR
STARTCHAR U+2253
ENCODING 8787
SWIDTH 500 0
DWIDTH 4 0
BBX 4 8 0 -2
BITMAP
00
00
00
00
00
00
00
00
ENDCHAR
STARTCHAR U+2254
ENCODING 8788
SWIDTH 500 0
DWIDTH 4 0
BBX 4 8 0 -2
BITMAP
00
40
80
40
00
E0
00
00
ENDCHAR
STARTCHAR U+2255
ENCODING 8789
SWIDTH 500 0
DWIDTH 4 0
BBX 4 8 0 -2
BITMAP
00
40
20
40
00
E0
00
00
ENDCHAR
STARTCHAR U+2256
ENCODING 8790
SWIDTH 500 0
DWIDTH 4 0
BBX 4 8 0 -2
BITMAP
00
40
80
40
00
E0
00
00
ENDCHAR
STARTCHAR U+2257
ENCODING 8791
SWIDTH 500 0
DWIDTH 4 0
BBX 4 8 0 -2
BITMAP
00
40
20
40
00
E0
00
00
ENDCHAR
STARTCHAR U+2258
ENCODING 8792
SWIDTH 500 0
DWIDTH 4 0
BBX 4 8 0 -2
BITMAP
00
00
00
00
00
00
00
00
ENDCHAR
STARTCHAR U+2259
ENCODING 8793
SWIDTH 500 0
DWIDTH 4 0
BBX 4 8 0 -2
BITMAP
00
00
00
00
00
00
00
40
ENDCHAR
STARTCHAR U+225A
ENCODING 8794
SWIDTH 500 0
DWIDTH 4 0
BBX 4 8 0 -2
BITMAP
00
40
20
40
00
40
20
40
ENDCHAR
STARTCHAR U+225B
ENCODING 8795
SWIDTH 500 0
DWIDTH 4 0
BBX 4 8 0 -2
BITMAP
00
40
80
40
00
40
80
00
ENDCHAR
STARTCHAR U+225C
ENCODING 8796
SWIDTH 500 0
DWIDTH 4 0
BBX 4 8 0 -2
BITMAP
00
00
00
00
00
00
00
00
ENDCHAR
STARTCHAR U+225D
ENCODING 8797
SWIDTH 500 0
DWIDTH 4 0
BBX 4 8 0 -2
BITMAP
00
00
00
00
00
00
00
00
ENDCHAR
STARTCHAR U+225E
ENCODING 8798
SWIDTH 500 0
DWIDTH 4 0
BBX 4 8 0 -2
BITMAP
00
00
00
00
00
00
00
00
ENDCHAR
STARTCHAR U+225F
ENCODING 8799
SWIDTH 500 0
DWIDTH 4 0
BBX 4 8 0 -2
BITMAP
00
00
00
00
00
00
00
00
ENDCHAR
ENDFONT
